<mxfile host="Electron" agent="Mozilla/5.0 (Macintosh; Intel Mac OS X 10_15_7) AppleWebKit/537.36 (KHTML, like Gecko) draw.io/26.0.9 Chrome/128.0.6613.186 Electron/32.2.5 Safari/537.36" version="26.0.9">
  <diagram name="ページ1" id="BMUL9oPgAHjQ-N3-XJ9u">
    <mxGraphModel dx="1156" dy="839" grid="1" gridSize="10" guides="1" tooltips="1" connect="1" arrows="1" fold="1" page="1" pageScale="1" pageWidth="800" pageHeight="350" math="1" shadow="0">
      <root>
        <mxCell id="0" />
        <mxCell id="1" parent="0" />
        <mxCell id="WhV0IVZUeJLeXdRGoRSI-1" value="" style="rounded=0;whiteSpace=wrap;html=1;fillColor=#FFD966;" parent="1" vertex="1">
          <mxGeometry x="40" y="140" width="720" height="20" as="geometry" />
        </mxCell>
        <mxCell id="WhV0IVZUeJLeXdRGoRSI-2" value="" style="rounded=0;whiteSpace=wrap;html=1;fillColor=#FFD966;" parent="1" vertex="1">
          <mxGeometry x="40" y="280" width="720" height="20" as="geometry" />
        </mxCell>
        <mxCell id="WhV0IVZUeJLeXdRGoRSI-6" value="" style="group" parent="1" vertex="1" connectable="0">
          <mxGeometry x="140" y="70" width="100" height="70" as="geometry" />
        </mxCell>
        <mxCell id="WhV0IVZUeJLeXdRGoRSI-4" value="" style="ellipse;whiteSpace=wrap;html=1;aspect=fixed;fillColor=#808080;" parent="WhV0IVZUeJLeXdRGoRSI-6" vertex="1">
          <mxGeometry x="30" width="40" height="40" as="geometry" />
        </mxCell>
        <mxCell id="WhV0IVZUeJLeXdRGoRSI-5" value="" style="ellipse;whiteSpace=wrap;html=1;aspect=fixed;fillColor=#FFFFFF;" parent="WhV0IVZUeJLeXdRGoRSI-6" vertex="1">
          <mxGeometry x="35" y="5" width="30" height="30" as="geometry" />
        </mxCell>
        <mxCell id="WhV0IVZUeJLeXdRGoRSI-3" value="" style="shape=trapezoid;perimeter=trapezoidPerimeter;whiteSpace=wrap;html=1;fixedSize=1;size=10;fillColor=#808080;" parent="WhV0IVZUeJLeXdRGoRSI-6" vertex="1">
          <mxGeometry y="20" width="100" height="50" as="geometry" />
        </mxCell>
        <mxCell id="WhV0IVZUeJLeXdRGoRSI-7" value="" style="group" parent="1" vertex="1" connectable="0">
          <mxGeometry x="540" y="210" width="100" height="70" as="geometry" />
        </mxCell>
        <mxCell id="WhV0IVZUeJLeXdRGoRSI-8" value="" style="ellipse;whiteSpace=wrap;html=1;aspect=fixed;fillColor=#808080;" parent="WhV0IVZUeJLeXdRGoRSI-7" vertex="1">
          <mxGeometry x="30" width="40" height="40" as="geometry" />
        </mxCell>
        <mxCell id="WhV0IVZUeJLeXdRGoRSI-9" value="" style="ellipse;whiteSpace=wrap;html=1;aspect=fixed;fillColor=#FFFFFF;" parent="WhV0IVZUeJLeXdRGoRSI-7" vertex="1">
          <mxGeometry x="35" y="5" width="30" height="30" as="geometry" />
        </mxCell>
        <mxCell id="WhV0IVZUeJLeXdRGoRSI-10" value="" style="shape=trapezoid;perimeter=trapezoidPerimeter;whiteSpace=wrap;html=1;fixedSize=1;size=10;fillColor=#808080;" parent="WhV0IVZUeJLeXdRGoRSI-7" vertex="1">
          <mxGeometry y="20" width="100" height="50" as="geometry" />
        </mxCell>
        <mxCell id="WhV0IVZUeJLeXdRGoRSI-16" value="" style="endArrow=none;html=1;rounded=0;" parent="WhV0IVZUeJLeXdRGoRSI-7" edge="1">
          <mxGeometry width="50" height="50" relative="1" as="geometry">
            <mxPoint x="100" y="70" as="sourcePoint" />
            <mxPoint x="100.63999999999999" y="-156.5" as="targetPoint" />
          </mxGeometry>
        </mxCell>
        <mxCell id="WhV0IVZUeJLeXdRGoRSI-11" value="" style="shape=flexArrow;endArrow=classic;html=1;rounded=0;fillColor=#FF0000;" parent="1" edge="1">
          <mxGeometry width="50" height="50" relative="1" as="geometry">
            <mxPoint x="87" y="110" as="sourcePoint" />
            <mxPoint x="137" y="110" as="targetPoint" />
          </mxGeometry>
        </mxCell>
        <mxCell id="WhV0IVZUeJLeXdRGoRSI-13" value="" style="shape=flexArrow;endArrow=classic;html=1;rounded=0;fillColor=#FF0000;" parent="1" edge="1">
          <mxGeometry width="50" height="50" relative="1" as="geometry">
            <mxPoint x="490" y="250" as="sourcePoint" />
            <mxPoint x="540" y="250" as="targetPoint" />
          </mxGeometry>
        </mxCell>
        <mxCell id="WhV0IVZUeJLeXdRGoRSI-14" value="" style="endArrow=none;html=1;rounded=0;" parent="1" edge="1">
          <mxGeometry width="50" height="50" relative="1" as="geometry">
            <mxPoint x="240" y="280" as="sourcePoint" />
            <mxPoint x="240.64" y="53.5" as="targetPoint" />
          </mxGeometry>
        </mxCell>
        <mxCell id="WhV0IVZUeJLeXdRGoRSI-17" value="" style="endArrow=classic;startArrow=classic;html=1;rounded=0;" parent="1" edge="1">
          <mxGeometry width="50" height="50" relative="1" as="geometry">
            <mxPoint x="250" y="100" as="sourcePoint" />
            <mxPoint x="630" y="100" as="targetPoint" />
          </mxGeometry>
        </mxCell>
        <mxCell id="WhV0IVZUeJLeXdRGoRSI-18" value="`l`" style="text;html=1;align=center;verticalAlign=middle;whiteSpace=wrap;rounded=0;fontSize=28;" parent="1" vertex="1">
          <mxGeometry x="410" y="60" width="60" height="30" as="geometry" />
        </mxCell>
        <mxCell id="WhV0IVZUeJLeXdRGoRSI-19" value="" style="shape=flexArrow;endArrow=classic;html=1;rounded=0;fillColor=#0000FF;" parent="1" edge="1">
          <mxGeometry width="50" height="50" relative="1" as="geometry">
            <mxPoint x="650" y="250" as="sourcePoint" />
            <mxPoint x="700" y="250" as="targetPoint" />
          </mxGeometry>
        </mxCell>
        <mxCell id="WhV0IVZUeJLeXdRGoRSI-20" value="`F_{ex}`" style="text;html=1;align=center;verticalAlign=middle;whiteSpace=wrap;rounded=0;fontSize=28;" parent="1" vertex="1">
          <mxGeometry x="30" y="90" width="60" height="30" as="geometry" />
        </mxCell>
        <mxCell id="WhV0IVZUeJLeXdRGoRSI-22" value="`V`" style="text;html=1;align=center;verticalAlign=middle;whiteSpace=wrap;rounded=0;fontSize=28;" parent="1" vertex="1">
          <mxGeometry x="700" y="230" width="60" height="30" as="geometry" />
        </mxCell>
        <mxCell id="WhV0IVZUeJLeXdRGoRSI-23" value="`F_{ex}`" style="text;html=1;align=center;verticalAlign=middle;whiteSpace=wrap;rounded=0;fontSize=28;" parent="1" vertex="1">
          <mxGeometry x="430" y="230" width="60" height="30" as="geometry" />
        </mxCell>
        <mxCell id="QlK1zAwva1LDETsav08y-1" value="" style="rounded=0;whiteSpace=wrap;html=1;fillColor=none;strokeColor=#FFFFFF;" vertex="1" parent="1">
          <mxGeometry x="20" y="20" width="760" height="310" as="geometry" />
        </mxCell>
      </root>
    </mxGraphModel>
  </diagram>
</mxfile>
